<?xml version="1.0" standalone="no"?>
<!DOCTYPE svg PUBLIC "-//W3C//DTD SVG 20010904//EN"
 "http://www.w3.org/TR/2001/REC-SVG-20010904/DTD/svg10.dtd">
<svg version="1.0" xmlns="http://www.w3.org/2000/svg"
 width="700.000000pt" height="700.000000pt" viewBox="0 0 700.000000 700.000000"
 preserveAspectRatio="xMidYMid meet">
<metadata>
Created by potrace 1.11, written by Peter Selinger 2001-2013
</metadata>
<g transform="translate(0.000000,700.000000) scale(0.100000,-0.100000)"
fill="#000000" stroke="none">
<path d="M887 6564 c-1 -1 -27 -4 -57 -7 -177 -19 -322 -139 -371 -307 -7 -25
-14 -54 -16 -65 -7 -39 -6 -4481 1 -4520 27 -168 144 -300 311 -353 42 -13
125 -16 520 -18 529 -3 488 -2 482 -11 -3 -5 -8 -39 -11 -78 -4 -38 -9 -83
-11 -100 -6 -40 -13 -107 -20 -180 -3 -33 -7 -73 -10 -90 -2 -16 -7 -59 -10
-95 -3 -36 -8 -76 -10 -90 -2 -14 -7 -61 -10 -105 -4 -44 -8 -84 -9 -90 -2
-16 9 -12 239 100 121 59 288 140 370 180 83 40 231 112 330 160 99 48 252
122 340 165 88 43 232 113 320 155 l160 78 1390 2 c1215 2 1396 4 1435 18 169
57 284 193 307 362 6 51 7 4457 0 4510 -24 189 -186 347 -381 372 -40 5 -5283
12 -5289 7z m3309 -2636 l1 -1378 -457 0 -456 0 0 1011 c1 692 -2 1013 -9
1019 -6 5 -103 9 -215 9 -113 0 -217 0 -231 1 l-25 0 1 353 c1 193 2 355 3
360 1 4 314 6 695 5 l692 -3 1 -1377z"/>
</g>
</svg>
